# xmcd
#
# Track frame offsets: 
#        180
#        13858
#        32404
#        45857
#        60590
#        77086
#        87245
#        101746
#        116681
#        130687
#        144847
#
# Disc length: 2151 seconds
#
# Revision: 0
# Processed by: cddbd v1.5.1PL0 Copyright (c) Steve Scherf et al.
# Submitted via: ExactAudioCopy v0.95a4
#
DISCID=7f08650b
DTITLE=Bryan Armstrong - Darker Shade of Blue
DYEAR=2002
DGENRE=Country
TTITLE0=Darker Shade of Blue
TTITLE1=Fool to Fall
TTITLE2=Man Invented the Blues
TTITLE3=Sleepwalk Back to Texas
TTITLE4=The Hunger
TTITLE5=Mr. Lonely Me
TTITLE6=Heads You Win
TTITLE7=Memories
TTITLE8=Green at the Blues
TTITLE9=Pressin' On
TTITLE10=Miracles Still Happen
EXTD=http://cdbaby.com/cd/barmstrong
EXTT0=
EXTT1=
EXTT2=
EXTT3=
EXTT4=
EXTT5=
EXTT6=
EXTT7=
EXTT8=
EXTT9=
EXTT10=
PLAYORDER=
